<svg xmlns="http://www.w3.org/2000/svg" viewBox="0 0 24 24" width="24" height="24" fill="none" stroke="currentColor" stroke-width="2" stroke-linecap="round" stroke-linejoin="round">
  <!-- Brain/memory icon -->
  <path d="M12 2C8.5 2 5.5 4.5 5 8c-.7.3-1.3.8-1.7 1.4C2.5 10.5 2 11.7 2 13c0 2.2 1.3 4 3.2 4.8.5 2 2.3 3.2 4.3 3.2.8 0 1.5-.2 2.2-.5.2 0 .3.5.3.5" />
  <path d="M12 2c3.5 0 6.5 2.5 7 6 .7.3 1.3.8 1.7 1.4.8 1.1 1.3 2.3 1.3 3.6 0 2.2-1.3 4-3.2 4.8-.5 2-2.3 3.2-4.3 3.2-.8 0-1.5-.2-2.2-.5-.2 0-.3.5-.3.5" />
  <path d="M12 2v20" />
  <path d="M8 8h1" />
  <path d="M15 8h1" />
  <path d="M7 12h2" />
  <path d="M15 12h2" />
  <path d="M8 16h1" />
  <path d="M15 16h1" />
</svg>
